{"title":"Dawn Of The Planet Of The Apes 2014 1080p WEB-DL H264 6CH AAC Pi","uid":11331385,"size":3421033992,"categoryP":"video","categoryS":"hd___movies","magnet":"?xt=urn:btih:fb2f5c5aa7b736f418366e27f1669de825ce8850&amp;dn=Dawn+Of+The+Planet+Of+The+Apes+2014+1080p+WEB-DL+H264+6CH+AAC+Pi&amp;tr=udp%3A%2F%2Ftracker.openbittorrent.com%3A80&amp;tr=udp%3A%2F%2Fopen.demonii.com%3A1337&amp;tr=udp%3A%2F%2Ftracker.coppersurfer.tk%3A6969&amp;tr=udp%3A%2F%2Fexodus.desync.com%3A6969","seeders":1,"leechers":0,"uploader":"shawnmurthy","files":-1,"time":1414685870,"description":" &lt;a href=&quot;http://i.imgur.com/c1Ejtiu.jpg&quot; rel=&quot;nofollow&quot; target=&quot;_NEW&quot;&gt;http://i.imgur.com/c1Ejtiu.jpg&lt;/a&gt;\n &lt;a href=&quot;\nhttp://i.imgur.com/fW5GLTr.jpg&quot; rel=&quot;nofollow&quot; target=&quot;_NEW&quot;&gt;\nhttp://i.imgur.com/fW5GLTr.jpg&lt;/a&gt;\n &lt;a href=&quot;\nhttp://i.imgur.com/46F1XMP.jpg&quot; rel=&quot;nofollow&quot; target=&quot;_NEW&quot;&gt;\nhttp://i.imgur.com/46F1XMP.jpg&lt;/a&gt;\n\nDawn Of The Planet Of The Apes 2014 1080p WEB-DL H264 6CH AAC Pimp4003\n\nENJOY\n\nPIMP4003\n\nVideo\nID                                       : 1\nFormat                                   : AVC\nFormat/Info                              : Advanced Video Codec\nFormat profile                           : &lt;a class=&quot;__cf_email__&quot; href=&quot;/cdn-cgi/l/email-protection&quot; data-cfemail=&quot;c78aa6aea9878bf3e9f7&quot;&gt;[email&amp;#160;protected]&lt;/a&gt;&lt;script cf-hash='f9e31' type=&quot;text/javascript&quot;&gt;\n/* &lt;![CDATA[ */!function(){try{var t=&quot;currentScript&quot;in document?document.currentScript:function(){for(var t=document.getElementsByTagName(&quot;script&quot;),e=t.length;e--;)if(t[e].getAttribute(&quot;cf-hash&quot;))return t[e]}();if(t&amp;&amp;t.previousSibling){var e,r,n,i,c=t.previousSibling,a=c.getAttribute(&quot;data-cfemail&quot;);if(a){for(e=&quot;&quot;,r=parseInt(a.substr(0,2),16),n=2;a.length-n;n+=2)i=parseInt(a.substr(n,2),16)^r,e+=String.fromCharCode(i);e=document.createTextNode(e),c.parentNode.replaceChild(e,c)}}}catch(u){}}();/* ]]&gt; */&lt;/script&gt;\nFormat settings, CABAC                   : Yes\nFormat settings, ReFrames                : 4 frames\nCodec ID                                 : avc1\nCodec ID/Info                            : Advanced Video Coding\nDuration                                 : 2h 10mn\nBit rate                                 : 3 263 Kbps\nWidth                                    : 1 916 pixels\nHeight                                   : 1 034 pixels\nDisplay aspect ratio                     : 1.85:1\nFrame rate mode                          : Variable\nFrame rate                               : 23.976 fps\nMinimum frame rate                       : 23.810 fps\nMaximum frame rate                       : 24.390 fps\nColor space                              : YUV\nChroma subsampling                       : 4:2:0\nBit depth                                : 8 bits\nScan type                                : Progressive\nBits/(Pixel*Frame)                       : 0.069\nStream size                              : 2.98 GiB (93%)\nWriting library                          : x264 core 130 r2273 b3065e6\nEncoding settings                        : cabac=1 / ref=1 / deblock=1:0:0 / analyse=0x1:0x111 / me=hex / subme=2 / psy=1 / psy_rd=1.00:0.00 / mixed_ref=0 / me_range=16 / chroma_me=1 / trellis=0 / 8x8dct=0 / cqm=0 / deadzone=21,11 / fast_pskip=1 / chroma_qp_offset=0 / threads=3 / lookahead_threads=1 / sliced_threads=0 / nr=0 / decimate=1 / interlaced=0 / bluray_compat=0 / constrained_intra=0 / bframes=3 / b_pyramid=2 / b_adapt=1 / b_bias=0 / direct=1 / weightb=1 / open_gop=0 / weightp=1 / keyint=240 / keyint_min=24 / scenecut=40 / intra_refresh=0 / rc_lookahead=10 / rc=crf / mbtree=1 / crf=20.0 / qcomp=0.60 / qpmin=0 / qpmax=69 / qpstep=4 / vbv_maxrate=20000 / vbv_bufsize=25000 / crf_max=0.0 / nal_hrd=none / ip_ratio=1.40 / aq=1:1.00\nEncoded date                             : UTC 2014-10-28 04:53:19\nTagged date                              : UTC 2014-10-28 09:05:08\nColor primaries                          : BT.709\nTransfer characteristics                 : BT.709\nMatrix coefficients                      : BT.709\n\nAudio\nID                                       : 2\nFormat                                   : AAC\nFormat/Info                              : Advanced Audio Codec\nFormat profile                           : LC\nCodec ID                                 : 40\nDuration                                 : 2h 10mn\nBit rate mode                            : Variable\nBit rate                                 : 224 Kbps\nMaximum bit rate                         : 344 Kbps\nChannel(s)                               : 6 channels\nChannel positions                        : Front: L C R, Side: L R, LFE\nSampling rate                            : 48.0 KHz\nCompression mode                         : Lossy\nStream size                              : 209 MiB (6%)\nLanguage                                 : English\nEncoded date                             : UTC 2014-10-28 04:53:19\nTagged date                              : UTC 2014-10-28 09:05:08\n\nMenu\nID                                       : 3\nCodec ID                                 : text\nDuration                                 : 2h 10mn\nEncoded date                             : UTC 2014-10-28 04:53:19\nTagged date                              : UTC 2014-10-28 09:05:08\nBit rate mode                            : VBR","torrent":{"xt":"urn:btih:fb2f5c5aa7b736f418366e27f1669de825ce8850","amp;dn":"Dawn+Of+The+Planet+Of+The+Apes+2014+1080p+WEB-DL+H264+6CH+AAC+Pi","amp;tr":["udp%3A%2F%2Ftracker.openbittorrent.com%3A80","udp%3A%2F%2Fopen.demonii.com%3A1337","udp%3A%2F%2Ftracker.coppersurfer.tk%3A6969","udp%3A%2F%2Fexodus.desync.com%3A6969"],"infoHash":"fb2f5c5aa7b736f418366e27f1669de825ce8850","infoHashBuffer":{"type":"Buffer","data":[251,47,92,90,167,183,54,244,24,54,110,39,241,102,157,232,37,206,136,80]},"announce":[],"urlList":[]}}